<svg width="24" height="23" viewBox="0 0 24 23" fill="none" xmlns="http://www.w3.org/2000/svg">
<path d="M23.3334 11.5C23.3334 14.55 22.1218 17.4751 19.9651 19.6317C17.8084 21.7884 14.8834 23 11.8334 23C8.78338 23 5.85831 21.7884 3.70165 19.6317C1.54498 17.4751 0.333374 14.55 0.333374 11.5C0.333374 8.45001 1.54498 5.52494 3.70165 3.36827C5.85831 1.2116 8.78338 0 11.8334 0C14.8834 0 17.8084 1.2116 19.9651 3.36827C22.1218 5.52494 23.3334 8.45001 23.3334 11.5ZM12.5521 6.46875C12.5521 6.27813 12.4764 6.09531 12.3416 5.96052C12.2068 5.82573 12.024 5.75 11.8334 5.75C11.6427 5.75 11.4599 5.82573 11.3251 5.96052C11.1903 6.09531 11.1146 6.27813 11.1146 6.46875V10.7812H6.80212C6.6115 10.7812 6.42868 10.857 6.29389 10.9918C6.1591 11.1266 6.08337 11.3094 6.08337 11.5C6.08337 11.6906 6.1591 11.8734 6.29389 12.0082C6.42868 12.143 6.6115 12.2188 6.80212 12.2188H11.1146V16.5312C11.1146 16.7219 11.1903 16.9047 11.3251 17.0395C11.4599 17.1743 11.6427 17.25 11.8334 17.25C12.024 17.25 12.2068 17.1743 12.3416 17.0395C12.4764 16.9047 12.5521 16.7219 12.5521 16.5312V12.2188H16.8646C17.0552 12.2188 17.2381 12.143 17.3729 12.0082C17.5076 11.8734 17.5834 11.6906 17.5834 11.5C17.5834 11.3094 17.5076 11.1266 17.3729 10.9918C17.2381 10.857 17.0552 10.7812 16.8646 10.7812H12.5521V6.46875Z" fill="black"/>
</svg>
