<svg width="19" height="21" viewBox="0 0 19 21" fill="white" xmlns="http://www.w3.org/2000/svg">
<path d="M18.875 19.2155C18.875 19.4917 18.7653 19.7567 18.5699 19.952C18.3746 20.1474 18.1096 20.2571 17.8333 20.2571H1.16667C0.8904 20.2571 0.625448 20.1474 0.430097 19.952C0.234747 19.7567 0.125 19.4917 0.125 19.2155V8.26654C0.12489 8.10781 0.16106 7.95115 0.230746 7.80852C0.300432 7.6659 0.401792 7.54109 0.527083 7.44363L8.86042 0.962392C9.04327 0.820148 9.26833 0.74292 9.5 0.74292C9.73167 0.74292 9.95673 0.820148 10.1396 0.962392L18.4729 7.44363C18.5982 7.54109 18.6996 7.6659 18.7693 7.80852C18.8389 7.95115 18.8751 8.10781 18.875 8.26654V19.2155Z" fill="white"/>
</svg>
