<svg width="26" height="25" viewBox="0 0 26 25" fill="none" xmlns="http://www.w3.org/2000/svg">
<path d="M16.4999 13.3406C20.642 13.3406 23.9999 11.8482 23.9999 10.0073C23.9999 8.16634 20.642 6.67395 16.4999 6.67395C12.3577 6.67395 8.99988 8.16634 8.99988 10.0073C8.99988 11.8482 12.3577 13.3406 16.4999 13.3406Z" stroke="black" stroke-width="1.66667" stroke-linecap="round" stroke-linejoin="round"/>
<path d="M8.99988 10.0073V20.0073C8.99988 21.8406 12.3332 23.3406 16.4999 23.3406C20.6665 23.3406 23.9999 21.8406 23.9999 20.0073V10.0073" stroke="black" stroke-width="1.66667" stroke-linecap="round" stroke-linejoin="round"/>
<path d="M23.9999 15.0073C23.9999 16.8406 20.6666 18.3406 16.4999 18.3406C12.3333 18.3406 8.99992 16.8406 8.99992 15.0073M16.3333 3.3406C14.3857 2.13872 12.1188 1.55746 9.83325 1.67393C5.68325 1.67393 2.33325 3.17393 2.33325 5.00727C2.33325 5.9906 3.29992 6.87393 4.83325 7.50727" stroke="black" stroke-width="1.66667" stroke-linecap="round" stroke-linejoin="round"/>
<path d="M4.83325 17.5073C3.29992 16.8739 2.33325 15.9906 2.33325 15.0073V5.00726" stroke="black" stroke-width="1.66667" stroke-linecap="round" stroke-linejoin="round"/>
<path d="M4.83325 12.5073C3.29992 11.8739 2.33325 10.9906 2.33325 10.0073" stroke="black" stroke-width="1.66667" stroke-linecap="round" stroke-linejoin="round"/>
</svg>
