<svg width="23" height="25" viewBox="0 0 23 25" fill="none" xmlns="http://www.w3.org/2000/svg">
<path d="M11.5 16.5171C10.7055 16.5171 9.92882 16.2815 9.26821 15.8401C8.6076 15.3987 8.09271 14.7713 7.78867 14.0373C7.48462 13.3032 7.40507 12.4955 7.56007 11.7163C7.71507 10.937 8.09767 10.2213 8.65947 9.65946C9.22127 9.09765 9.93706 8.71506 10.7163 8.56006C11.4955 8.40506 12.3033 8.48461 13.0373 8.78866C13.7713 9.0927 14.3987 9.60759 14.8401 10.2682C15.2815 10.9288 15.5171 11.7055 15.5171 12.5C15.5139 13.5644 15.0897 14.5843 14.337 15.337C13.5843 16.0897 12.5644 16.5139 11.5 16.5171ZM20.173 12.5C20.1709 12.1246 20.1433 11.7498 20.0906 11.3782L22.5355 9.46405C22.642 9.37613 22.7138 9.2532 22.7379 9.11724C22.7621 8.98128 22.7372 8.84115 22.6676 8.72189L20.3547 4.72888C20.2844 4.61067 20.1747 4.52105 20.0448 4.47577C19.9149 4.43049 19.7733 4.43245 19.6447 4.48132L16.77 5.63624C16.1713 5.17529 15.5163 4.79274 14.8206 4.49789L14.3908 1.44589C14.3668 1.30918 14.296 1.18507 14.1906 1.09476C14.0851 1.00446 13.9516 0.953566 13.8129 0.950781H9.18715C9.05089 0.953432 8.91956 1.0022 8.81459 1.08911C8.70962 1.17602 8.63721 1.29595 8.60918 1.42932L8.17935 4.48132C7.48182 4.77275 6.82627 5.15591 6.23005 5.62068L3.3553 4.46576C3.22679 4.41684 3.08516 4.4148 2.9553 4.45999C2.82543 4.50517 2.71566 4.59469 2.64527 4.71281L0.332419 8.70532C0.262802 8.82458 0.237861 8.96471 0.262054 9.10067C0.286247 9.23663 0.357997 9.35956 0.464482 9.44748L2.9094 11.3616C2.85725 11.7389 2.82974 12.1192 2.82705 12.5C2.82914 12.8753 2.85665 13.2501 2.9094 13.6218L0.464482 15.5359C0.357997 15.6238 0.286247 15.7468 0.262054 15.8827C0.237861 16.0187 0.262802 16.1588 0.332419 16.2781L2.64527 20.2711C2.71558 20.3893 2.82532 20.4789 2.95519 20.5242C3.08506 20.5695 3.22674 20.5675 3.3553 20.5187L6.23005 19.3637C6.82866 19.8247 7.48373 20.2072 8.17935 20.5021L8.60918 23.5541C8.63324 23.6908 8.70403 23.8149 8.80944 23.9052C8.91486 23.9955 9.04837 24.0464 9.18715 24.0492H13.8129C13.9491 24.0465 14.0804 23.9978 14.1854 23.9109C14.2904 23.824 14.3628 23.704 14.3908 23.5707L14.8206 20.5187C15.5191 20.2274 16.1755 19.8443 16.7725 19.3793L19.6447 20.5342C19.7732 20.5831 19.9148 20.5852 20.0447 20.54C20.1746 20.4948 20.2843 20.4053 20.3547 20.2872L22.6676 16.2942C22.7372 16.1749 22.7621 16.0348 22.7379 15.8988C22.7138 15.7628 22.642 15.6399 22.5355 15.552L20.0906 13.6378C20.1427 13.2607 20.1702 12.8807 20.173 12.5Z" fill="black"/>
</svg>
